<svg width="11" height="9" viewBox="0 0 11 9" fill="none" xmlns="http://www.w3.org/2000/svg">
<path d="M6.43152 3.60358L6.0651 2.87075L5.99902 2.90379L5.93992 2.94812L6.43152 3.60358ZM4.24663 5.24225L3.75503 4.58678L3.62663 4.68308L3.54406 4.8207L4.24663 5.24225ZM1.81302 8.1721C1.92276 8.61109 2.3676 8.878 2.8066 8.76826L9.96046 6.9799C10.3995 6.87016 10.6664 6.42531 10.5566 5.98632C10.4469 5.54732 10.002 5.28041 9.56305 5.39015L3.20406 6.97981L1.6144 0.62082C1.50466 0.181824 1.05982 -0.0850892 0.620823 0.0246539C0.181827 0.134397 -0.0850861 0.579238 0.0246565 1.01823L1.81302 8.1721ZM8.61641 2.51114L8.41769 1.71627L8.33044 1.73808L8.24999 1.7783L8.61641 2.51114ZM5.93992 2.94812L3.75503 4.58678L4.73823 5.89772L6.92312 4.25905L5.93992 2.94812ZM3.54406 4.8207L1.90533 7.55183L3.31046 8.39494L4.94919 5.6638L3.54406 4.8207ZM10.6026 1.17004L8.41769 1.71627L8.81513 3.30601L11 2.75978L10.6026 1.17004ZM8.24999 1.7783L6.0651 2.87075L6.79793 4.33642L8.98282 3.24397L8.24999 1.7783Z" fill="black"/>
</svg>
